<svg xmlns="http://www.w3.org/2000/svg" viewBox="0 0 640 400" role="img" aria-labelledby="title desc">
  <title id="title">Prototype development icon</title>
  <desc id="desc">Gear and wrench themed illustration.</desc>
  <defs>
    <linearGradient id="bg" x1="0%" y1="0%" x2="100%" y2="100%">
      <stop offset="0%" stop-color="#102335"/>
      <stop offset="100%" stop-color="#173e5e"/>
    </linearGradient>
  </defs>
  <rect width="640" height="400" rx="32" fill="url(#bg)"/>
  <circle cx="248" cy="204" r="78" fill="#f4f8fb"/>
  <circle cx="248" cy="204" r="32" fill="#173a58"/>
  <path d="M248 102v36M248 270v36M146 204h36M314 204h36M178 134l25 25M293 249l25 25M178 274l25-25M293 159l25-25" fill="none" stroke="#7fe0ff" stroke-linecap="round" stroke-width="16"/>
  <path d="M382 132c11-11 28-13 42-7l-32 32 18 18 32-32c6 14 4 31-7 42l-28 28 34 88-23 23-88-34-60 60-22-22 60-60-34-88 23-23 88 34 27-27Z" fill="#7fe0ff"/>
</svg>
